<svg xmlns="http://www.w3.org/2000/svg" xmlns:svg="http://www.w3.org/2000/svg" id="svg4215" width="562.5" height="562.5" version="1.1" viewBox="0 0 562.5 562.5" xml:space="preserve"><metadata id="metadata4221"/><g id="g4223" transform="matrix(1.25,0,0,-1.25,0,562.5)"><g id="g4227"><path id="path4229" fill="#418" fill-opacity="1" fill-rule="evenodd" stroke="none" d="m 410.8631,145.698 c 43.7972,43.7973 43.7972,114.8067 0,158.604 0,0 -106.5611,106.5611 -106.5611,106.5611 -43.7973,43.7972 -114.8067,43.7972 -158.604,0 0,0 -106.56109,-106.5611 -106.56109,-106.5611 -43.797259,-43.7973 -43.797259,-114.8067 0,-158.604 0,0 106.56109,-106.56109 106.56109,-106.56109 43.7973,-43.797259 114.8067,-43.797259 158.604,0 0,0 106.5611,106.56109 106.5611,106.56109 z"/><path id="path4231" fill="#fd5" fill-opacity="1" fill-rule="nonzero" stroke="none" d="m 331.25,225 c 0,-58.5938 -47.6563,-106.25 -106.25,-106.25 -58.5938,0 -106.25,47.6562 -106.25,106.25 0,58.5938 47.6562,106.25 106.25,106.25 58.5937,0 106.25,-47.6562 106.25,-106.25 z M 375,225 C 375,307.8125 307.8125,375 225,375 142.1875,375 75,307.8125 75,225 75,142.1875 142.1875,75 225,75 c 82.8125,0 150,67.1875 150,150 z"/><g id="g4233" transform="matrix(0.75,0,0,-0.75,0,450)"><path id="path4235" fill="none" stroke="#fd5" stroke-dasharray="none" stroke-linecap="round" stroke-linejoin="round" stroke-miterlimit="1.414" stroke-opacity="1" stroke-width="26.667" d="M 246.5312,246.5312 C 276.0612,246.5312 300,270.47 300,300 c 0,29.53 -23.9388,53.4688 -53.4688,53.4688 -29.5301,0 -53.4689,-23.9388 -53.4689,-53.4688 0,-29.53 23.9388,-53.4688 53.4689,-53.4688 z"/></g><g id="g4237" transform="matrix(0.75,0,0,-0.75,0,450)"><path id="path4239" fill="none" stroke="#fd5" stroke-dasharray="none" stroke-linecap="round" stroke-linejoin="round" stroke-miterlimit="1.414" stroke-opacity="1" stroke-width="26.667" d="m 300,300 c 0,0 141.8315,0 141.8315,0"/></g></g></g></svg>